<?xml version="1.0" standalone="no"?>
<!DOCTYPE svg PUBLIC "-//W3C//DTD SVG 20010904//EN"
 "http://www.w3.org/TR/2001/REC-SVG-20010904/DTD/svg10.dtd">
<svg version="1.0" xmlns="http://www.w3.org/2000/svg"
 width="200.000000pt" height="200.000000pt" viewBox="0 0 200.000000 200.000000"
 preserveAspectRatio="xMidYMid meet">
<metadata>
Created by potrace 1.14, written by Peter Selinger 2001-2017
</metadata>
<g transform="translate(0.000000,200.000000) scale(0.100000,-0.100000)"
fill="#000000" stroke="none">
<path d="M840 1953 c-23 -10 -46 -36 -58 -68 -8 -20 -11 -111 -11 -273 1 -152
-2 -247 -9 -254 -7 -7 -34 14 -85 64 -66 63 -76 78 -75 108 0 119 -114 191
-222 141 -72 -34 -99 -153 -50 -220 22 -32 102 -77 118 -67 5 3 53 -38 108
-90 106 -102 143 -124 208 -124 83 0 159 70 171 160 4 25 7 139 7 253 l1 208
55 -3 55 -3 2 -59 c2 -51 6 -63 29 -83 36 -31 77 -30 110 3 25 25 26 32 26
125 0 115 -8 142 -52 169 -29 18 -50 20 -173 19 -77 0 -147 -3 -155 -6z"/>
<path d="M1478 1673 c-55 -23 -88 -75 -88 -138 0 -31 -23 -57 -276 -307 l-275
-273 -277 0 c-152 -1 -284 1 -292 3 -9 2 -15 15 -15 33 -1 28 0 29 42 26 102
-8 159 95 85 153 -21 17 -40 20 -119 20 -156 0 -171 -16 -172 -191 -3 -215
-11 -209 315 -210 l245 -1 -18 -20 c-78 -89 -187 -188 -206 -188 -36 0 -85
-37 -107 -80 -53 -103 33 -230 145 -215 88 11 136 69 137 162 0 42 1 44 246
282 136 132 270 261 297 286 28 26 123 119 211 206 89 87 165 159 170 160 66
5 117 33 142 78 44 78 15 173 -63 211 -45 22 -80 23 -127 3z"/>
<path d="M1625 1180 c-61 -24 -67 -108 -11 -145 13 -9 46 -17 73 -18 45 -2 48
-3 50 -32 l2 -30 -267 -1 c-294 0 -301 -2 -362 -65 -51 -54 -56 -87 -55 -391
0 -178 -4 -278 -10 -279 -95 -11 -108 -4 -103 59 6 85 -87 131 -147 72 -17
-18 -20 -34 -22 -123 -2 -171 17 -187 223 -187 150 0 188 12 212 65 8 17 12
123 12 332 l1 307 25 22 c24 23 29 23 247 23 374 0 341 -3 376 30 l31 29 0
139 c-1 145 -3 154 -50 186 -19 13 -45 17 -115 16 -49 0 -99 -4 -110 -9z"/>
<path d="M1459 557 c-153 -102 -21 -338 145 -257 142 68 93 280 -64 280 -32 0
-58 -7 -81 -23z"/>
</g>
</svg>
